EBGaramond-InitialsF2.sfdir
StartChar: dollar
Encoding: 36 36 30
Width: 1000
VWidth: 1290
Flags: H
LayerCount: 2
Fore
SplineSet
511 830 m 0
 454 825 413 772 413 720 c 0
 413 679 446 643 484 614 c 0
 488 611 493 612 493 616 c 2
 518 822 l 2
 518 827 516 830 511 830 c 0
544 570 m 0
 595 534 694 476 694 374 c 0
 694 294 638 185 489 185 c 0
 486 185 481 184 480 179 c 2
 471 103 l 2
 469 91 457 88 446 88 c 0
 437 88 428 94 430 103 c 2
 440 182 l 2
 440 185 437 189 434 189 c 0
 398 195 375 205 351 211 c 0
 337 214 339 218 337 223 c 0
 326 246 308 325 306 361 c 0
 306 369 315 377 326 377 c 0
 335 377 366 265 438 229 c 0
 441 228 446 228 446 231 c 2
 479 500 l 2
 479 503 479 508 467 517 c 0
 398 565 336 620 336 700 c 0
 336 758 390 854 513 862 c 0
 519 863 522 865 523 868 c 2
 527 894 l 2
 528 906 542 911 556 911 c 0
 564 911 570 902 569 894 c 2
 565 868 l 2
 564 865 566 862 571 861 c 0
 611 858 635 850 650 847 c 0
 660 844 666 835 668 825 c 0
 674 791 682 753 682 718 c 0
 682 709 677 693 672 693 c 0
 667 693 650 703 646 718 c 0
 630 778 596 808 564 821 c 0
 561 822 559 818 559 816 c 2
 531 589 l 2
 529 574 532 579 544 570 c 0
516 473 m 2
 487 229 l 2
 486 220 490 219 495 219 c 0
 569 224 604 257 604 351 c 0
 604 401 545 461 520 478 c 0
 517 480 517 478 516 473 c 2
EndSplineSet
EndChar
StartChar: parenleft
Encoding: 40 40 32
Width: 280
VWidth: 0
Flags: HW
LayerCount: 2
Fore
SplineSet
219 87 m 0
 219 73 210 65 197 65 c 0
 191 65 184.055664062 66.208984375 180 72 c 0
 122.407226562 154.250976562 40 354 40 524 c 0
 40 694 118.407226562 842.749023438 176 925 c 0
 180.870117188 931.955078125 191 936 201 936 c 0
 208 936 221 929 221 920 c 0
 221 918 209.623046875 903.318359375 208 901 c 0
 150.407226562 818.749023438 91 686 91 536 c 0
 91 386 146.407226562 188.250976562 204 106 c 0
 205.623046875 103.681640625 219 89 219 87 c 0
EndSplineSet
EndChar
StartChar: parenright
Encoding: 3 41 33
Width: 280
VWidth: 0
Flags: HW
LayerCount: 2
Fore
SplineSet
61 914 m 0
 61 928 70 936 83 936 c 0
 89 936 95.9443359375 934.791015625 100 929 c 0
 157.592773438 846.749023438 240 658 240 488 c 0
 240 318 161.592773438 158.250976562 104 76 c 0
 99.1298828125 69.044921875 89 65 79 65 c 0
 72 65 59 72 59 81 c 0
 59 83 70.376953125 97.681640625 72 100 c 0
 129.592773438 182.250976562 189 326 189 476 c 0
 189 626 133.592773438 812.749023438 76 895 c 0
 74.376953125 897.318359375 61 912 61 914 c 0
EndSplineSet
EndChar
StartChar: B
Encoding: 66 66 4
Width: 1000
VWidth: 1290
Flags: H
LayerCount: 2
Fore
SplineSet
343.139648438 873.120117188 m 1
 343.139648438 522.1796875 l 1
 388.440429688 527.610351562 610.299804688 501.080078125 610.299804688 703.940429688 c 0
 610.299804688 896.3203125 420.01953125 873.120117188 343.139648438 873.120117188 c 1
691.959960938 343.400390625 m 0
 691.859375 343.659179688 691.73828125 343.912109375 691.599609375 344.150390625 c 0
 688.440429688 349.66015625 660.080078125 510.419921875 343.139648438 495.4296875 c 1
 346.740234375 113.23046875 l 1
 755.790039062 71.2802734375 715.73046875 281.360351562 691.959960938 343.400390625 c 0
720.440429688 736.0703125 m 0
 743.120117188 597.169921875 609.08984375 543.719726562 584.759765625 530.740234375 c 0
 583.192382812 529.919921875 582.122070312 528.27734375 582.122070312 526.38671875 c 0
 582.122070312 524.228515625 583.522460938 522.397460938 585.459960938 521.740234375 c 0
 750.599609375 461.259765625 821.780273438 409.360351562 821.780273438 293.830078125 c 0
 821.780273438 79.8896484375 641.709960938 71.599609375 456.110351562 71.599609375 c 2
 111.23046875 71.599609375 l 2
 110.48046875 71.6201171875 73.8701171875 68.259765625 84.1298828125 79.900390625 c 0
 94.5 91.650390625 217.73046875 83.5 219.98046875 163.959960938 c 0
 221.400390625 214.66015625 219.8203125 873.879882812 219.8203125 874 c 0
 219.8203125 896.620117188 203.540039062 897.860351562 203.540039062 897.860351562 c 1
 194.83984375 902.450195312 104.139648438 917.490234375 133.919921875 929.799804688 c 1
 422.799804688 929.809570312 l 2
 557.740234375 929.809570312 700.33984375 859.209960938 720.440429688 736.0703125 c 0
EndSplineSet
EndChar
StartChar: C
Encoding: 67 67 5
Width: 1000
VWidth: 1290
Flags: H
LayerCount: 2
Fore
SplineSet
484.349609375 117.1796875 m 0
 753.120117188 117.1796875 817.0703125 344.599609375 848.669921875 395.780273438 c 1
 838.25 344.440429688 814.059570312 198.740234375 806.709960938 168.98046875 c 0
 804.280273438 159.150390625 801.610351562 148.860351562 786.91015625 141.48046875 c 0
 575.759765625 35.41015625 75.1396484375 -5.2001953125 75.1396484375 515.540039062 c 0
 75.1396484375 731.740234375 281.900390625 901.740234375 463.419921875 915.040039062 c 0
 592.650390625 924.509765625 715.73046875 887.049804688 733.3203125 882.4296875 c 0
 747.009765625 878.830078125 752.780273438 871.150390625 752.0703125 855.73046875 c 0
 750.700195312 825.98046875 753.379882812 795.1796875 755.200195312 765.379882812 c 0
 756.509765625 743.83984375 757.280273438 722.259765625 759.370117188 700.700195312 c 1
 749.990234375 704.799804688 743.190429688 709.959960938 742.690429688 716.099609375 c 0
 739.01953125 761.3203125 708.459960938 854.150390625 523.870117188 872.16015625 c 0
 313.01953125 892.73046875 203.0703125 735.629882812 203.0703125 515.530273438 c 0
 203.0703125 277.6796875 312.73046875 117.1796875 484.349609375 117.1796875 c 0
EndSplineSet
EndChar
StartChar: G
Encoding: 71 71 0
Width: 1000
VWidth: 290
Flags: HMW
LayerCount: 2
Fore
SplineSet
867 463 m 2
 872 463 872 452 867 451 c 0
 824 445 795 443 795 376 c 2
 796 218 l 2
 796 200 798 185 811 185 c 0
 820 185 837 189 837 186 c 0
 837 159 713 91 526 91 c 0
 274 91 96 284 96 503 c 0
 96 734 307 903 533 903 c 0
 649 903 728.158203125 865.780273438 762 850 c 0
 771.063476562 845.7734375 774.302734375 843.975585938 775 834 c 0
 776.825195312 807.893554688 798 710 798 692 c 0
 798 675 789.94140625 669.291015625 787 684 c 0
 783 704 740.991210938 764.998046875 685 824 c 0
 660.907226562 849.387695312 611.872070312 866 521 866 c 0
 329 866 214.564453125 690.7109375 216 507 c 0
 217 379 312 120 528 120 c 0
 604 120 692 134 692 166 c 2
 692 329 l 2
 692 450 638 445 584 451 c 0
 578 452 579 463 584 463 c 2
 727 458 l 1
 867 463 l 2
EndSplineSet
Position2: "Single Positioning lookup 27 subtable" dx=0 dy=0 dh=346 dv=0
Position2: "Single Positioning lookup 24 subtable" dx=0 dy=0 dh=280 dv=0
Position2: "Single Positioning lookup 21 subtable" dx=0 dy=0 dh=266 dv=0
Position2: "Single Positioning lookup 18 subtable" dx=0 dy=0 dh=169 dv=0
Position2: "Single Positioning lookup 15 subtable" dx=0 dy=0 dh=318 dv=0
Position2: "Single Positioning lookup 12 subtable" dx=0 dy=0 dh=209 dv=0
Position2: "Single Positioning lookup 9 subtable" dx=0 dy=0 dh=263 dv=0
Position2: "Single Positioning lookup 6 subtable" dx=0 dy=0 dh=160 dv=0
EndChar
StartChar: J
Encoding: 74 74 11
Width: 1000
VWidth: 1290
Flags: H
LayerCount: 2
Fore
SplineSet
470.498046875 898.798828125 m 2
 768.091796875 898.798828125 l 2
 772.892578125 898.798828125 773.84375 890.174804688 768.091796875 889.2109375 c 0
 688.075195312 875.799804688 682.091796875 808.682617188 682.091796875 729.1015625 c 0
 682.091796875 621.892578125 682.27734375 515.125976562 682.20703125 407.775390625 c 0
 682.090820312 398.376953125 682.044921875 386.875976562 682.091796875 376.71875 c 1
 681.859375 376.703125 l 1
 678.333984375 201.365234375 644.424804688 176.55078125 606.642578125 139.79296875 c 0
 568.165039062 101.928710938 515.400390625 75.70703125 431.30078125 75.70703125 c 0
 338.620117188 75.70703125 284.44140625 96.0986328125 284.44140625 116.4921875 c 0
 284.44140625 142.698242188 310.116210938 169.900390625 335.767578125 169.900390625 c 0
 372.853515625 169.900390625 389.948242188 162.12890625 407.064453125 144.658203125 c 0
 428.44921875 122.322265625 449.833007812 116.4921875 474.0703125 116.4921875 c 0
 541.076171875 116.4921875 568.166015625 175.713867188 568.166015625 269.90625 c 0
 568.166015625 422.908203125 567.794921875 575.91015625 568.00390625 729.1015625 c 0
 568.00390625 808.682617188 570.90234375 871.9609375 470.498046875 889.2109375 c 0
 464.74609375 890.174804688 462.821289062 898.798828125 470.498046875 898.798828125 c 2
EndSplineSet
Position2: "Single Positioning lookup 27 subtable" dx=0 dy=0 dh=346 dv=0
Position2: "Single Positioning lookup 24 subtable" dx=0 dy=0 dh=280 dv=0
Position2: "Single Positioning lookup 21 subtable" dx=0 dy=0 dh=266 dv=0
Position2: "Single Positioning lookup 18 subtable" dx=0 dy=0 dh=169 dv=0
Position2: "Single Positioning lookup 15 subtable" dx=0 dy=0 dh=318 dv=0
Position2: "Single Positioning lookup 12 subtable" dx=0 dy=0 dh=209 dv=0
Position2: "Single Positioning lookup 9 subtable" dx=0 dy=0 dh=263 dv=0
Position2: "Single Positioning lookup 6 subtable" dx=0 dy=0 dh=160 dv=0
EndChar
StartChar: N
Encoding: 78 78 15
Width: 1000
VWidth: 1290
Flags: H
LayerCount: 2
Fore
SplineSet
695.490234375 897.200195312 m 0
 697.290039062 897.200195312 699.450195312 897.030273438 701.73046875 897.030273438 c 0
 706.73046875 897.030273438 765.919921875 892.290039062 786.490234375 892.150390625 c 2
 787.849609375 892.139648438 l 2
 790.030273438 892.139648438 792.290039062 892.190429688 794.58984375 892.25 c 0
 818.549804688 892.969726562 869.469726562 897.030273438 874.08984375 897.030273438 c 0
 880.1796875 897.030273438 885.360351562 898.25 885.360351562 894.26953125 c 0
 885.360351562 888.879882812 884.490234375 890.099609375 851.690429688 881.290039062 c 0
 810.400390625 870.200195312 807.25 818.540039062 807.25 753.440429688 c 2
 807.25 358.040039062 l 2
 807.25 316.870117188 812.799804688 86.6904296875 812.799804688 86.6904296875 c 1
 232.620117188 755.01953125 l 1
 232.620117188 247.5703125 l 2
 232.620117188 182.469726562 235.780273438 130.8203125 277.0703125 119.73046875 c 0
 309.870117188 110.91015625 310.740234375 112.139648438 310.740234375 106.75 c 0
 310.740234375 102.76953125 305.559570312 103.990234375 299.459960938 103.990234375 c 0
 294.849609375 103.990234375 243.9296875 108.040039062 219.959960938 108.759765625 c 0
 217.669921875 108.8203125 215.41015625 108.879882812 213.23046875 108.879882812 c 2
 211.870117188 108.860351562 l 2
 191.299804688 108.73046875 132.110351562 103.990234375 127.110351562 103.990234375 c 0
 121.01953125 103.990234375 115.830078125 102.76953125 115.830078125 106.75 c 0
 115.830078125 112.139648438 117.3203125 111.099609375 149.509765625 119.719726562 c 0
 191.129882812 130.879882812 194.139648438 182.16015625 194.139648438 245.959960938 c 2
 194.139648438 710.5 l 2
 194.139648438 868.400390625 145.799804688 852.66015625 37.759765625 881.610351562 c 0
 25.73046875 884.830078125 23.7099609375 884.01953125 23.7099609375 890.049804688 c 0
 23.7099609375 894.110351562 22.240234375 896.129882812 38.919921875 896.129882812 c 0
 83.5595703125 896.129882812 170.969726562 895.629882812 198.370117188 895.629882812 c 0
 216.219726562 895.629882812 225.669921875 896.870117188 232.0703125 896.690429688 c 0
 242.719726562 896.41015625 244.849609375 892.200195312 263.120117188 871.790039062 c 0
 274.610351562 858.940429688 768.669921875 277.599609375 768.690429688 277.58984375 c 1
 768.700195312 277.940429688 l 1
 768.759765625 600.719726562 l 1
 768.759765625 755.059570312 l 2
 768.759765625 818.860351562 765.759765625 870.139648438 724.129882812 881.290039062 c 0
 691.950195312 889.919921875 690.459960938 888.870117188 690.459960938 894.26953125 c 0
 690.459960938 896.75 692.490234375 897.209960938 695.490234375 897.200195312 c 0
EndSplineSet
EndChar
StartChar: O
Encoding: 79 79 16
Width: 1000
VWidth: 1290
Flags: H
LayerCount: 2
Fore
SplineSet
540.169921875 129.240234375 m 0
 711.900390625 129.240234375 807.75 257.040039062 807.75 496.66015625 c 0
 807.75 727.299804688 682.940429688 864.080078125 510.209960938 864.080078125 c 0
 320.509765625 864.080078125 219.669921875 725.299804688 219.669921875 564.549804688 c 0
 219.669921875 480.6796875 282.5703125 129.240234375 540.169921875 129.240234375 c 0
514.200195312 900.01953125 m 1
 514.200195312 900.030273438 l 1
 694.91015625 900.030273438 912.580078125 738.280273438 912.580078125 505.650390625 c 0
 912.580078125 192.139648438 680.940429688 86.2998046875 526.1796875 86.2998046875 c 0
 299.540039062 86.2998046875 116.8203125 284.990234375 116.8203125 498.66015625 c 0
 116.8203125 749.259765625 338.469726562 900.01953125 514.200195312 900.01953125 c 1
EndSplineSet
Position2: "Single Positioning lookup 27 subtable" dx=0 dy=0 dh=346 dv=0
Position2: "Single Positioning lookup 24 subtable" dx=0 dy=0 dh=280 dv=0
Position2: "Single Positioning lookup 21 subtable" dx=0 dy=0 dh=266 dv=0
Position2: "Single Positioning lookup 18 subtable" dx=0 dy=0 dh=169 dv=0
Position2: "Single Positioning lookup 15 subtable" dx=0 dy=0 dh=318 dv=0
Position2: "Single Positioning lookup 12 subtable" dx=0 dy=0 dh=209 dv=0
Position2: "Single Positioning lookup 9 subtable" dx=0 dy=0 dh=263 dv=0
Position2: "Single Positioning lookup 6 subtable" dx=0 dy=0 dh=160 dv=0
EndChar
StartChar: R
Encoding: 82 82 19
Width: 1000
VWidth: 1290
Flags: H
LayerCount: 2
Fore
SplineSet
390.900390625 890.630859375 m 0
 418.584960938 890.583984375 442.888671875 890.182617188 461.587890625 889.212890625 c 0
 778.91796875 872.752929688 719.061523438 525.58203125 517.37890625 496.048828125 c 1
 640.96875 423.275390625 712.690429688 139.318359375 902.18359375 95.921875 c 1
 783.646484375 95.921875 l 1
 609.586914062 90.693359375 526.8515625 402.244140625 385.62890625 485.119140625 c 1
 338.7734375 486.44921875 l 1
 338.7734375 224.37109375 l 2
 338.7734375 136.462890625 387.483398438 104.05078125 477.10546875 104.05078125 c 0
 481.999023438 104.05078125 485.002929688 94.509765625 477.10546875 94.509765625 c 2
 109.16015625 94.509765625 l 2
 100.172851562 94.509765625 102.692382812 105.33203125 109.634765625 105.33203125 c 0
 199.170898438 105.138671875 227.203125 147.307617188 227.203125 224.37109375 c 2
 227.203125 775.619140625 l 2
 227.572265625 872.387695312 141.271484375 875.806640625 111.984375 875.806640625 c 0
 103.870117188 875.806640625 99.2626953125 887.3359375 110.572265625 887.3359375 c 0
 194.375976562 887.733398438 307.84765625 890.772460938 390.900390625 890.630859375 c 0
369.66015625 871.75390625 m 0
 357.748046875 871.745117188 346.098632812 871.69140625 335.951171875 871.69140625 c 1
 338.5390625 499.390625 l 1
 386.688476562 494.998046875 446.41796875 492.456054688 474.046875 499.859375 c 0
 559.795898438 522.8359375 683.235351562 750.92578125 450.560546875 867.84375 c 0
 443.502929688 871.389648438 405.397460938 871.780273438 369.66015625 871.75390625 c 0
EndSplineSet
Position2: "Single Positioning lookup 27 subtable" dx=0 dy=0 dh=346 dv=0
Position2: "Single Positioning lookup 24 subtable" dx=0 dy=0 dh=280 dv=0
Position2: "Single Positioning lookup 21 subtable" dx=0 dy=0 dh=266 dv=0
Position2: "Single Positioning lookup 18 subtable" dx=0 dy=0 dh=169 dv=0
Position2: "Single Positioning lookup 15 subtable" dx=0 dy=0 dh=318 dv=0
Position2: "Single Positioning lookup 12 subtable" dx=0 dy=0 dh=209 dv=0
Position2: "Single Positioning lookup 9 subtable" dx=0 dy=0 dh=263 dv=0
Position2: "Single Positioning lookup 6 subtable" dx=0 dy=0 dh=160 dv=0
EndChar
StartChar: T
Encoding: 84 84 1
Width: 1006
VWidth: 1290
Flags: HMW
LayerCount: 2
Fore
SplineSet
557 850 m 1
 557 257 l 2
 557 174 562 108 691 90 c 0
 697 89 699 80 691 80 c 2
 310 80 l 2
 305 80 304 89 310 90 c 0
 408 104 438 174 438 257 c 2
 438 852 l 1
 251 852 l 2
 206.5 852 177 831 153 779 c 0
 138 747 134 737 129 737 c 0
 120 737 119 746 119 761 c 0
 119 797 134.5 872.5 139 887 c 0
 140.482421875 891.775390625 142.5 895 150 895 c 2
 891 895 l 2
 899 895 900 894 900 887 c 0
 900 881 863 761 862 749 c 0
 860 731 856 722 854 722 c 0
 846 722 838 743 838 764 c 0
 838 812 823 850 793 850 c 2
 557 850 l 1
EndSplineSet
Position2: "Single Positioning lookup 27 subtable" dx=0 dy=0 dh=346 dv=0
Position2: "Single Positioning lookup 24 subtable" dx=0 dy=0 dh=280 dv=0
Position2: "Single Positioning lookup 21 subtable" dx=0 dy=0 dh=266 dv=0
Position2: "Single Positioning lookup 18 subtable" dx=0 dy=0 dh=169 dv=0
Position2: "Single Positioning lookup 15 subtable" dx=0 dy=0 dh=318 dv=0
Position2: "Single Positioning lookup 12 subtable" dx=0 dy=0 dh=209 dv=0
Position2: "Single Positioning lookup 9 subtable" dx=0 dy=0 dh=263 dv=0
Position2: "Single Positioning lookup 6 subtable" dx=0 dy=0 dh=160 dv=0
EndChar
StartChar: U
Encoding: 85 85 21
Width: 1000
VWidth: 1290
Flags: H
LayerCount: 2
Fore
SplineSet
81.5 895.620117188 m 0
 84.16015625 895.599609375 87.6103515625 895.549804688 92.08984375 895.549804688 c 0
 100.16015625 895.540039062 152.620117188 893.990234375 216.099609375 893.990234375 c 0
 279.580078125 893.990234375 314.1796875 895.540039062 322.240234375 895.549804688 c 0
 326.73046875 895.559570312 330.169921875 895.599609375 332.83984375 895.620117188 c 0
 340.799804688 895.66015625 341.639648438 895.41015625 341.639648438 892.940429688 c 0
 341.639648438 888.389648438 342 884.330078125 339.990234375 884.330078125 c 0
 285.030273438 884.530273438 265.919921875 822.58984375 265.919921875 791.129882812 c 0
 265.919921875 723.629882812 265.049804688 663.33984375 265.049804688 498.900390625 c 2
 265.049804688 422.799804688 l 2
 265.049804688 227.129882812 372.650390625 139.080078125 521.849609375 139.080078125 c 0
 689.389648438 139.080078125 765.209960938 266.26953125 765.209960938 457.040039062 c 0
 765.209960938 469.969726562 765.25 482.209960938 765.26953125 494.669921875 c 2
 765.26953125 496.1796875 l 2
 765.280273438 505.040039062 765.25 514.549804688 765.23046875 523.969726562 c 2
 765.23046875 524.240234375 l 2
 765.100585938 565.958007812 764.504882812 605.5390625 763.389648438 647.01953125 c 1
 763.559570312 647.209960938 l 1
 762.209960938 691.8203125 760.219726562 717.370117188 758.1796875 754.469726562 c 0
 755.450195312 804.370117188 732.040039062 884.540039062 677.080078125 884.33984375 c 0
 675.0703125 884.33984375 675.440429688 888.389648438 675.440429688 892.940429688 c 0
 675.440429688 895.41015625 676.26953125 895.650390625 684.240234375 895.610351562 c 0
 686.900390625 895.58984375 690.349609375 895.540039062 694.830078125 895.530273438 c 0
 702.900390625 895.530273438 747.169921875 893.969726562 810.650390625 893.969726562 c 0
 874.129882812 893.969726562 906.200195312 895.530273438 914.26953125 895.530273438 c 0
 918.75 895.549804688 922.190429688 895.58984375 924.849609375 895.610351562 c 0
 932.8203125 895.639648438 933.650390625 895.400390625 933.650390625 892.9296875 c 0
 933.650390625 888.389648438 934.009765625 884.330078125 932.009765625 884.330078125 c 0
 904.51953125 884.419921875 879.240234375 872.059570312 860.8203125 855.740234375 c 0
 826.940429688 825.719726562 825.990234375 732.33984375 825.709960938 716.209960938 c 0
 825.709960938 608.719726562 825.099609375 608.780273438 821.099609375 400.780273438 c 0
 817.450195312 211.169921875 675.940429688 77.9404296875 496.169921875 77.9404296875 c 0
 277.26953125 77.9404296875 167.209960938 201.459960938 167.209960938 388.559570312 c 2
 167.209960938 498.959960938 l 2
 167.209960938 663.419921875 166.330078125 739.549804688 166.330078125 807.049804688 c 0
 166.330078125 838.51953125 129.299804688 884.540039062 74.33984375 884.33984375 c 0
 72.330078125 884.33984375 72.7001953125 888.400390625 72.7001953125 892.950195312 c 0
 72.7001953125 895.41015625 73.5302734375 895.650390625 81.5 895.620117188 c 0
EndSplineSet
EndChar
StartChar: Y
Encoding: 89 89 25
Width: 1000
VWidth: 1290
Flags: H
LayerCount: 2
Fore
SplineSet
355.639648438 887.23046875 m 1
 355.66015625 887.23046875 l 2
 396.6796875 887.1796875 431.669921875 886.950195312 449.73046875 886.400390625 c 0
 454.389648438 886.400390625 454.389648438 870.169921875 449.009765625 869.5703125 c 0
 391.740234375 864.23046875 345.400390625 832.219726562 376.860351562 775.780273438 c 2
 518.16015625 522.299804688 l 1
 660.849609375 744.629882812 l 2
 696.879882812 800.759765625 663.349609375 857.639648438 594.650390625 877.580078125 c 0
 585.759765625 878.700195312 594.41015625 886.780273438 594.780273438 887.080078125 c 0
 594.870117188 887.16015625 614.129882812 887.200195312 643 887.219726562 c 0
 729.58984375 887.259765625 902.48046875 887.080078125 902.5703125 887.080078125 c 0
 910.009765625 887.1796875 907 875.860351562 901.5703125 875.540039062 c 0
 808.620117188 874.349609375 764.650390625 819.959960938 720.669921875 752.919921875 c 0
 691.290039062 708.150390625 632.099609375 614.759765625 588.349609375 543.690429688 c 0
 540.139648438 465.379882812 545.799804688 463.030273438 545.900390625 378.4296875 c 0
 546 293.83984375 546.280273438 268.240234375 546.280273438 223.33984375 c 0
 546.280273438 145.48046875 605.299804688 109.650390625 673.450195312 109.830078125 c 0
 675.940429688 109.830078125 675.490234375 105.830078125 675.490234375 101.360351562 c 0
 675.490234375 98.919921875 674.459960938 98.7001953125 657.950195312 98.759765625 c 0
 641.4296875 98.8095703125 577.83984375 100.330078125 498.490234375 100.330078125 c 0
 419.129882812 100.330078125 355.540039062 98.8095703125 339.01953125 98.75 c 0
 322.5 98.7001953125 321.48046875 98.919921875 321.48046875 101.349609375 c 0
 321.48046875 105.83984375 321.030273438 109.83984375 323.51953125 109.83984375 c 0
 391.669921875 109.650390625 449.360351562 145.309570312 449.360351562 223.33984375 c 0
 449.360351562 271.469726562 449.73046875 291.299804688 449.830078125 367.5703125 c 0
 449.98046875 476.5703125 419.98046875 500.1796875 377.959960938 568.969726562 c 0
 335.9296875 637.759765625 304.91015625 689.009765625 264.26953125 754.509765625 c 0
 190.51953125 873.400390625 103 869.900390625 103 869.900390625 c 2
 97.4501953125 870.469726562 98.8701171875 886.400390625 105.309570312 886.400390625 c 0
 106.5 886.299804688 215.650390625 887.099609375 313.01953125 887.23046875 c 2
 355.639648438 887.23046875 l 1
EndSplineSet
Position2: "Single Positioning lookup 27 subtable" dx=0 dy=0 dh=346 dv=0
Position2: "Single Positioning lookup 24 subtable" dx=0 dy=0 dh=280 dv=0
Position2: "Single Positioning lookup 21 subtable" dx=0 dy=0 dh=266 dv=0
Position2: "Single Positioning lookup 18 subtable" dx=0 dy=0 dh=169 dv=0
Position2: "Single Positioning lookup 15 subtable" dx=0 dy=0 dh=318 dv=0
Position2: "Single Positioning lookup 12 subtable" dx=0 dy=0 dh=209 dv=0
Position2: "Single Positioning lookup 9 subtable" dx=0 dy=0 dh=263 dv=0
Position2: "Single Positioning lookup 6 subtable" dx=0 dy=0 dh=160 dv=0
EndChar
StartChar: bracketleft
Encoding: 91 91 34
Width: 346
VWidth: 0
Flags: HW
LayerCount: 2
Fore
SplineSet
135 951 m 10
 288 951 l 26
 297 951 306 947 306 937 c 0
 306 927 293 921 280 920 c 2
 173 916 l 2
 158 916 145 900 145 881 c 2
 145 123 l 2
 145 96 154 86 172 84 c 2
 280 80 l 2
 293 78 306 76 306 64 c 24
 306 52 292 49 280 49 c 26
 128 49 l 18
 105 49 97 50 97 74 c 2
 97 917 l 2
 97 951 103 951 135 951 c 10
EndSplineSet
Position2: "Single Positioning lookup 28 subtable" dx=0 dy=0 dh=346 dv=0
Position2: "Single Positioning lookup 26 subtable" dx=-346 dy=0 dh=-346 dv=0
EndChar
StartChar: exclamdown
Encoding: 161 161 36
Width: 160
Flags: HW
LayerCount: 2
Fore
SplineSet
77.9541015625 558.137695312 m 0
 85.9453125 558.137695312 89.94140625 537.151367188 91.939453125 520.168945312 c 0
 93.361328125 506.422851562 94.908203125 487.52734375 96.5048828125 472 c 0
 105.00390625 389.35546875 110.915039062 249.814453125 110.915039062 209.44921875 c 0
 110.915039062 187.471679688 100.9296875 165.493164062 79.9521484375 165.493164062 c 0
 59.97265625 165.493164062 49.9892578125 185.471679688 49.9892578125 207.44921875 c 0
 49.9892578125 247.814453125 51.77734375 389.35546875 59.6044921875 472 c 0
 61.0751953125 487.52734375 62.546875 506.422851562 63.96875 520.168945312 c 0
 65.966796875 542.146484375 69.9619140625 558.137695312 77.9541015625 558.137695312 c 0
78 721 m 28
 101 721 119 703 119 680 c 28
 119 657 101 639 78 639 c 28
 55 639 37 657 37 680 c 28
 37 703 55 721 78 721 c 28
EndSplineSet
Position2: "Single Positioning lookup 7 subtable" dx=0 dy=0 dh=160 dv=0
Position2: "Single Positioning lookup 5 subtable" dx=-160 dy=0 dh=-160 dv=0
EndChar
StartChar: questiondown
Encoding: 36 191 49
Width: 0
Flags: HW
LayerCount: 2
Fore
SplineSet
-82 721 m 24
 -59 721 -41 703 -41 680 c 24
 -41 657 -59 639 -82 639 c 24
 -105 639 -123 657 -123 680 c 24
 -123 703 -105 721 -82 721 c 24
-82 569 m 0
 -77.005859375 569 -68.99609375 556.987304688 -65 545 c 0
 -61.0048828125 528.017578125 -53 502 -53 470 c 0
 -53 446 -80.05078125 425.974609375 -129 402 c 0
 -149.977539062 391.01171875 -172 358.975585938 -172 336 c 0
 -172 286.051757812 -151.950195312 238 -100 238 c 0
 -93.009765625 238 -86.9619140625 240.80859375 -81 242 c 0
 -76.0087890625 242.997070312 -69.9912109375 243 -62 243 c 0
 -46.0166015625 243 -31 218.978515625 -31 198 c 0
 -31 184.014648438 -47.0126953125 173 -60 173 c 0
 -85.97265625 173 -118.026367188 186.025390625 -143 211 c 0
 -185.955078125 253.955078125 -214 324.041015625 -214 363 c 0
 -214 400.9609375 -187.604492188 434.02734375 -172 443 c 10
 -118 471 l 18
 -96.6923828125 482.044921875 -92.9990234375 525.025390625 -92 549 c 0
 -92 556.991210938 -89.9921875 569 -82 569 c 0
-91.12890625 716.962890625 m 0
 -66.154296875 716.962890625 -45.1767578125 696.984375 -45.1767578125 671.01171875 c 0
 -45.1767578125 646.037109375 -66.154296875 625.059570312 -91.12890625 625.059570312 c 0
 -116.102539062 625.059570312 -137.080078125 646.037109375 -137.080078125 671.01171875 c 0
 -137.080078125 696.984375 -116.102539062 716.962890625 -91.12890625 716.962890625 c 0
  Spiro
    -91.129 716.963 o
    -68.136 710.833 o
    -51.5283 694.448 o
    -45.1768 671.012 o
    -51.5283 648.019 o
    -68.136 631.411 o
    -91.129 625.06 o
    -114.121 631.411 o
    -130.729 648.019 o
    -137.08 671.012 o
    -130.729 694.448 o
    -114.121 710.833 o
    0 0 z
  EndSpiro
EndSplineSet
EndChar
StartChar: Udieresis
Encoding: 220 220 29
Width: 1000
VWidth: 1290
Flags: H
LayerCount: 2
Fore
SplineSet
362.599609375 970.799804688 m 1
 362.599609375 970.790039062 l 1
 396.530273438 970.790039062 424.799804688 942.51953125 424.799804688 908.58984375 c 0
 424.799804688 874.66015625 396.530273438 846.389648438 362.58984375 846.389648438 c 0
 328.66015625 846.389648438 300.389648438 874.66015625 300.389648438 908.58984375 c 0
 300.389648438 942.51953125 328.66015625 970.799804688 362.599609375 970.799804688 c 1
653.309570312 970.799804688 m 1
 653.3203125 970.790039062 l 1
 687.240234375 970.790039062 715.51953125 942.51953125 715.51953125 908.58984375 c 0
 715.51953125 874.66015625 687.240234375 846.389648438 653.309570312 846.389648438 c 0
 619.379882812 846.389648438 591.110351562 874.66015625 591.110351562 908.58984375 c 0
 591.110351562 942.51953125 619.379882812 970.799804688 653.309570312 970.799804688 c 1
126.459960938 804.580078125 m 1
 126.469726562 804.5703125 l 2
 128.83984375 804.559570312 131.919921875 804.5 135.919921875 804.5 c 0
 143.129882812 804.5 189.98046875 803.099609375 246.66015625 803.099609375 c 0
 303.360351562 803.099609375 334.25 804.5 341.459960938 804.5 c 0
 345.450195312 804.51953125 348.530273438 804.559570312 350.91015625 804.580078125 c 0
 358.01953125 804.610351562 358.76953125 804.379882812 358.76953125 802.1796875 c 0
 358.76953125 798.120117188 359.099609375 794.5 357.299804688 794.5 c 0
 308.219726562 794.669921875 291.16015625 739.360351562 291.16015625 711.259765625 c 0
 291.16015625 650.98046875 290.360351562 597.150390625 290.360351562 450.299804688 c 2
 290.360351562 382.360351562 l 2
 290.360351562 207.629882812 386.469726562 129 519.700195312 129 c 0
 669.299804688 129 737 242.580078125 737 412.940429688 c 2
 737 472.940429688 l 2
 737 479.030273438 736.889648438 484.669921875 736.889648438 490.290039062 c 0
 736.673828125 521.625 736.168945312 551.405273438 735.330078125 582.58984375 c 1
 735.48046875 582.759765625 l 1
 734.280273438 622.58984375 732.490234375 645.41015625 730.6796875 678.540039062 c 0
 728.23046875 723.099609375 707.33984375 794.690429688 658.259765625 794.509765625 c 0
 656.459960938 794.509765625 656.790039062 798.129882812 656.790039062 802.190429688 c 0
 656.790039062 804.379882812 657.530273438 804.620117188 664.650390625 804.580078125 c 1
 664.650390625 804.5703125 l 2
 667.01953125 804.559570312 670.099609375 804.5 674.099609375 804.5 c 0
 681.309570312 804.5 720.83984375 803.099609375 777.530273438 803.099609375 c 0
 834.219726562 803.099609375 862.860351562 804.5 870.059570312 804.5 c 0
 874.059570312 804.51953125 877.139648438 804.5703125 879.509765625 804.5703125 c 0
 886.629882812 804.599609375 887.379882812 804.400390625 887.379882812 802.200195312 c 0
 887.379882812 798.129882812 887.709960938 794.5 885.91015625 794.5 c 0
 861.370117188 794.580078125 838.790039062 783.549804688 822.33984375 768.98046875 c 0
 792.0703125 742.169921875 791.240234375 658.780273438 790.98046875 644.379882812 c 2
 790.98046875 644.370117188 l 2
 790.98046875 548.389648438 790.440429688 548.4296875 786.870117188 362.700195312 c 0
 783.599609375 193.370117188 657.23046875 74.400390625 496.700195312 74.400390625 c 0
 301.23046875 74.400390625 202.950195312 184.690429688 202.950195312 351.76953125 c 2
 202.950195312 450.370117188 l 2
 202.950195312 597.23046875 202.150390625 665.219726562 202.150390625 725.490234375 c 0
 202.150390625 753.58984375 169.08984375 794.690429688 120.009765625 794.509765625 c 0
 118.209960938 794.509765625 118.540039062 798.139648438 118.540039062 802.200195312 c 0
 118.540039062 804.400390625 119.280273438 804.620117188 126.400390625 804.580078125 c 2
 126.459960938 804.580078125 l 1
EndSplineSet
Position2: "Single Positioning lookup 27 subtable" dx=0 dy=0 dh=346 dv=0
Position2: "Single Positioning lookup 24 subtable" dx=0 dy=0 dh=280 dv=0
Position2: "Single Positioning lookup 21 subtable" dx=0 dy=0 dh=266 dv=0
Position2: "Single Positioning lookup 18 subtable" dx=0 dy=0 dh=169 dv=0
Position2: "Single Positioning lookup 15 subtable" dx=0 dy=0 dh=318 dv=0
Position2: "Single Positioning lookup 12 subtable" dx=0 dy=0 dh=209 dv=0
Position2: "Single Positioning lookup 9 subtable" dx=0 dy=0 dh=263 dv=0
Position2: "Single Positioning lookup 6 subtable" dx=0 dy=0 dh=160 dv=0
EndChar
StartChar: quoteleft
Encoding: 8216 8216 42
Width: 169
Flags: HW
LayerCount: 2
Fore
SplineSet
116 927 m 0
 122.0703125 927 129 923 129 920 c 0
 129 916.83984375 120.223632812 911.969726562 116 910 c 0
 96.0615234375 900.702148438 74 871 74 846 c 8
 74 828.719726562 78.904296875 815.129882812 93 810 c 0
 107.095703125 804.870117188 118 794.030273438 118 779 c 0
 118 762.969726562 103 753 87 753 c 8
 54 753 40 790 40 823 c 0
 40 874 84 927 116 927 c 0
EndSplineSet
Position2: "Single Positioning lookup 19 subtable" dx=0 dy=0 dh=169 dv=0
Position2: "Single Positioning lookup 17 subtable" dx=-169 dy=0 dh=-169 dv=0
EndChar
StartChar: guilsinglleft
Encoding: 8249 8249 38
Width: 209
Flags: HW
LayerCount: 2
Fore
SplineSet
89 492 m 16
 108.876953125 472.123046875 138.26953125 435.565429688 164 391 c 8
 167 385 169 382.0703125 169 375 c 24
 169 370 167.099609375 364 162 364 c 0
 157 364 151 372.2421875 145 380 c 16
 114.810546875 418.549804688 86.8291015625 448.380859375 39 487 c 8
 34.09765625 491.114257812 30 495 30 500 c 0
 30 505 35 508 39 512 c 16
 86.8291015625 550.619140625 114.811523438 580.450195312 145 619 c 8
 150 626 156 635 162 635 c 8
 166 635 169 630 169 626 c 16
 169 621 166.239257812 614.470703125 164 610 c 0
 140.958007812 563.987304688 108.876953125 528.876953125 89 509 c 8
 84 504 84 497 89 492 c 16
EndSplineSet
Position2: "Single Positioning lookup 13 subtable" dx=0 dy=0 dh=209 dv=0
Position2: "Single Positioning lookup 11 subtable" dx=-209 dy=0 dh=-209 dv=0
EndChar
StartChar: L.01
Encoding: 50 -1 50
Width: 1000
Flags: HW
LayerCount: 2
Fore
SplineSet
526 855 m 2
 530 855 531.943359375 846.834960938 526.000976562 846 c 0
 437.8671875 833.614257812 378.000976562 821 378.000976562 755 c 2
 378.000976562 283 l 2
 378.000976562 204 396.000976562 178 456.000976562 178 c 2
 589.000976562 178 l 2
 726.000976562 178 791.1015625 252.62890625 832.000976562 365 c 0
 833.686523438 369.6328125 845.016601562 373.827148438 844.000976562 369 c 0
 826.305664062 284.94921875 813.15625 238.126953125 788 156 c 0
 786.287109375 150.40625 782 147 776 147 c 2
 115 147 l 2
 110 147 109.057617188 156.165039062 115 157 c 0
 203.133789062 169.385742188 263 169 263 235 c 2
 263 755 l 2
 263 821 203.133789062 832.614257812 115 845 c 0
 109.057617188 845.834960938 111 855 115 855 c 2
 526 855 l 2
EndSplineSet
EndChar
